<svg width="267" height="267" viewBox="0 0 267 267" fill="none" xmlns="http://www.w3.org/2000/svg">
<rect width="267" height="267" rx="30" fill="#629CCA"/>
<path d="M134 57C164.376 57 189 62.3726 189 69C189 69.0927 188.994 69.1851 188.984 69.2773L182 199C182 205.627 160.51 211 134 211C107.49 211 86 205.627 86 199L79.0146 69.2773C79.0051 69.1851 79 69.0927 79 69C79 62.3726 103.624 57 134 57Z" fill="#FAF9F5"/>
<path d="M182.427 64.0462L181.775 65.1008L182.427 64.0462ZM187.345 93.3324L188.585 93.3449L187.345 93.3324ZM184.523 137.289L185.763 137.332L184.523 137.289ZM183.611 159.294L184.846 159.405V159.405L183.611 159.294ZM182.964 170.287L181.725 170.252L182.964 170.287ZM178.763 201.138L179.545 202.1L178.763 201.138ZM148.088 210.445L147.788 209.242L148.088 210.445ZM137.143 211.121L137.293 209.89L137.143 211.121ZM104.323 207.909L104.136 209.134L104.323 207.909ZM86.7711 198.111L85.6082 198.541L86.7711 198.111ZM84.5788 187.581L83.341 187.655L84.5788 187.581ZM84.2192 176.573L82.9792 176.58L84.2192 176.573ZM82.6479 143.576L81.4081 143.601L82.6479 143.576ZM82.0525 132.581L80.8173 132.691L82.0525 132.581ZM80.184 88.5732L78.9475 88.6662L80.184 88.5732ZM139.499 57.2461L139.443 58.4848C143.095 58.6482 146.741 58.8738 150.382 59.1615L150.48 57.9253L150.578 56.6892C146.908 56.3993 143.234 56.172 139.554 56.0073L139.499 57.2461ZM150.48 57.9253L150.382 59.1615C154.037 59.4502 157.693 59.7417 161.35 60.036L161.45 58.8L161.549 57.564C157.891 57.2696 154.234 56.978 150.578 56.6892L150.48 57.9253ZM161.45 58.8L161.35 60.036C164.968 60.327 168.571 60.7953 172.161 61.4409L172.38 60.2205L172.6 59.0001C168.931 58.3403 165.248 57.8615 161.549 57.564L161.45 58.8ZM172.38 60.2205L172.161 61.4409C175.64 62.0667 178.841 63.2869 181.775 65.1008L182.427 64.0462L183.079 62.9915C179.875 61.01 176.379 59.6798 172.6 59.0001L172.38 60.2205ZM182.427 64.0462L181.775 65.1008C184.54 66.8107 185.944 69.0716 186.152 71.9424L187.388 71.853L188.625 71.7636C188.355 68.0207 186.451 65.077 183.079 62.9915L182.427 64.0462ZM187.388 71.853L186.152 71.9424C186.387 75.2023 186.448 78.6474 186.334 82.2786L187.573 82.3176L188.813 82.3566C188.93 78.6487 188.867 75.1175 188.625 71.7636L187.388 71.853ZM187.573 82.3176L186.334 82.2786C186.218 85.9569 186.142 89.6373 186.105 93.3199L187.345 93.3324L188.585 93.3449C188.622 89.68 188.698 86.0172 188.813 82.3566L187.573 82.3176ZM187.345 93.3324L186.105 93.3199C186.068 96.953 185.854 100.577 185.461 104.191L186.694 104.324L187.927 104.458C188.328 100.764 188.547 97.0592 188.585 93.3449L187.345 93.3324ZM186.694 104.324L185.461 104.191C185.062 107.863 184.746 111.541 184.513 115.222L185.75 115.301L186.988 115.379C187.219 111.735 187.532 108.094 187.927 104.458L186.694 104.324ZM185.75 115.301L184.513 115.222C184.28 118.886 184.05 122.55 183.821 126.213L185.059 126.291L186.296 126.368C186.525 122.705 186.756 119.042 186.988 115.379L185.75 115.301ZM185.059 126.291L183.821 126.213C183.591 129.888 183.412 133.566 183.284 137.246L184.523 137.289L185.763 137.332C185.89 133.675 186.068 130.02 186.296 126.368L185.059 126.291ZM184.523 137.289L183.284 137.246C183.156 140.921 183.054 144.597 182.978 148.274L184.218 148.3L185.458 148.325C185.534 144.66 185.635 140.995 185.763 137.332L184.523 137.289ZM184.218 148.3L182.978 148.274C182.903 151.917 182.703 155.554 182.376 159.183L183.611 159.294L184.846 159.405C185.178 155.719 185.382 152.026 185.458 148.325L184.218 148.3ZM183.611 159.294L182.376 159.183C182.045 162.867 181.827 166.556 181.725 170.252L182.964 170.287L184.204 170.321C184.305 166.676 184.519 163.038 184.846 159.405L183.611 159.294ZM182.964 170.287L181.725 170.252C181.622 173.932 181.565 177.615 181.553 181.301L182.793 181.305L184.033 181.308C184.045 177.644 184.102 173.981 184.204 170.321L182.964 170.287ZM182.793 181.305L181.553 181.301C181.542 184.978 181.542 188.657 181.555 192.336L182.795 192.332L184.035 192.328C184.022 188.654 184.022 184.981 184.033 181.308L182.793 181.305ZM182.795 192.332L181.555 192.336C181.566 195.662 180.372 198.233 177.981 200.176L178.763 201.138L179.545 202.1C182.555 199.654 184.048 196.354 184.035 192.328L182.795 192.332ZM178.763 201.138L177.981 200.176C175.369 202.299 172.429 204.1 169.157 205.576L169.667 206.707L170.177 207.837C173.632 206.277 176.757 204.366 179.545 202.1L178.763 201.138ZM169.667 206.707L169.157 205.576C165.95 207.023 162.585 207.764 159.051 207.801L159.064 209.041L159.076 210.281C162.952 210.241 166.656 209.426 170.177 207.837L169.667 206.707ZM159.064 209.041L159.051 207.801C155.249 207.84 151.494 208.321 147.788 209.242L148.088 210.445L148.387 211.649C151.906 210.774 155.468 210.318 159.076 210.281L159.064 209.041ZM148.088 210.445L147.788 209.242C144.322 210.104 140.826 210.319 137.293 209.89L137.143 211.121L136.994 212.352C140.828 212.818 144.628 212.583 148.387 211.649L148.088 210.445ZM137.143 211.121L137.293 209.89C133.575 209.438 129.87 209.142 126.176 209.002L126.13 210.241L126.083 211.48C129.706 211.617 133.343 211.908 136.994 212.352L137.143 211.121ZM126.13 210.241L126.176 209.002C122.551 208.865 118.94 208.582 115.343 208.153L115.196 209.384L115.049 210.616C118.713 211.052 122.391 211.34 126.083 211.48L126.13 210.241ZM115.196 209.384L115.343 208.153C111.725 207.722 108.114 207.232 104.509 206.683L104.323 207.909L104.136 209.134C107.767 209.688 111.405 210.182 115.049 210.616L115.196 209.384ZM104.323 207.909L104.509 206.683C100.979 206.145 97.546 205.236 94.2086 203.955L93.7645 205.113L93.3203 206.271C96.8237 207.615 100.429 208.569 104.136 209.134L104.323 207.909ZM93.7645 205.113L94.2086 203.955C91.1122 202.768 89.0487 200.693 87.934 197.681L86.7711 198.111L85.6082 198.541C86.9771 202.241 89.5759 204.834 93.3203 206.271L93.7645 205.113ZM86.7711 198.111L87.934 197.681C86.7356 194.442 86.0292 191.052 85.8166 187.507L84.5788 187.581L83.341 187.655C83.5678 191.438 84.3229 195.068 85.6082 198.541L86.7711 198.111ZM84.5788 187.581L85.8166 187.507C85.5982 183.865 85.479 180.219 85.4592 176.566L84.2192 176.573L82.9792 176.58C82.9993 180.277 83.1199 183.969 83.341 187.655L84.5788 187.581ZM84.2192 176.573L85.4592 176.566C85.4391 172.881 85.3713 169.198 85.2558 165.518L84.0164 165.557L82.777 165.596C82.8919 169.255 82.9593 172.916 82.9792 176.58L84.2192 176.573ZM84.0164 165.557L85.2558 165.518C85.1397 161.821 84.8991 158.13 84.534 154.446L83.3001 154.568L82.0661 154.691C82.4257 158.319 82.6627 161.954 82.777 165.596L84.0164 165.557ZM83.3001 154.568L84.534 154.446C84.1749 150.822 83.9594 147.191 83.8877 143.552L82.6479 143.576L81.4081 143.601C81.4812 147.305 81.7006 151.002 82.0661 154.691L83.3001 154.568ZM82.6479 143.576L83.8877 143.552C83.8147 139.852 83.6147 136.158 83.2876 132.472L82.0525 132.581L80.8173 132.691C81.1393 136.321 81.3363 139.957 81.4081 143.601L82.6479 143.576ZM82.0525 132.581L83.2876 132.472C82.9666 128.852 82.8167 125.224 82.8381 121.586L81.5981 121.579L80.3581 121.571C80.3363 125.287 80.4894 128.994 80.8173 132.691L82.0525 132.581ZM81.5981 121.579L82.8381 121.586C82.8599 117.87 82.7082 114.164 82.3831 110.467L81.1479 110.576L79.9127 110.684C80.231 114.304 80.3795 117.933 80.3581 121.571L81.5981 121.579ZM81.1479 110.576L82.3831 110.467C82.0644 106.842 81.8937 103.209 81.8712 99.5686L80.6312 99.5763L79.3912 99.584C79.4142 103.292 79.588 106.992 79.9127 110.684L81.1479 110.576ZM80.6312 99.5763L81.8712 99.5686C81.8482 95.8657 81.698 92.1695 81.4205 88.4802L80.184 88.5732L78.9475 88.6662C79.2207 92.2987 79.3686 95.938 79.3912 99.584L80.6312 99.5763ZM80.184 88.5732L81.4205 88.4802C81.1465 84.8376 80.9534 81.1907 80.8413 77.5394L79.6019 77.5774L78.3625 77.6155C78.4757 81.3035 78.6707 84.9871 78.9475 88.6662L80.184 88.5732ZM79.6019 77.5774L80.8413 77.5394C80.7349 74.0765 81.4749 71.1152 83.0143 68.6053L81.9573 67.957L80.9003 67.3086C79.0737 70.2867 78.2434 73.7391 78.3625 77.6155L79.6019 77.5774ZM81.9573 67.957L83.0143 68.6053C84.5051 66.1747 86.8226 64.5287 90.092 63.703L89.7883 62.5008L89.4847 61.2985C85.6787 62.2597 82.7755 64.2512 80.9003 67.3086L81.9573 67.957ZM89.7883 62.5008L90.092 63.703C93.6184 62.8124 97.1634 61.97 100.727 61.1758L100.457 59.9655L100.188 58.7552C96.6013 59.5544 93.0337 60.4022 89.4847 61.2985L89.7883 62.5008ZM100.457 59.9655L100.727 61.1758C104.276 60.3849 107.854 59.7094 111.463 59.1491L111.273 57.9238L111.082 56.6985C107.421 57.267 103.789 57.9525 100.188 58.7552L100.457 59.9655ZM111.273 57.9238L111.463 59.1491C115.003 58.5995 118.568 58.4632 122.16 58.7404L122.255 57.5041L122.35 56.2677C118.569 55.9759 114.813 56.1194 111.082 56.6985L111.273 57.9238ZM122.255 57.5041L122.16 58.7404C125.887 59.0281 128.894 58.9803 131.126 58.5511L130.892 57.3334L130.658 56.1157C128.747 56.4832 125.996 56.5491 122.35 56.2677L122.255 57.5041ZM130.892 57.3334L131.126 58.5511C132.159 58.3527 132.915 58.2183 133.407 58.1447C133.658 58.107 133.811 58.0899 133.886 58.085C133.935 58.0818 133.898 58.0876 133.822 58.0796C133.798 58.0771 133.655 58.0636 133.484 57.9873C133.346 57.9262 132.76 57.6141 132.76 56.868H134H135.24C135.24 56.1109 134.645 55.7897 134.492 55.7214C134.304 55.6379 134.137 55.6191 134.081 55.6132C133.94 55.5984 133.806 55.605 133.726 55.6102C133.542 55.6221 133.306 55.6522 133.039 55.692C132.495 55.7736 131.698 55.9159 130.658 56.1157L130.892 57.3334ZM134 56.868H132.76C132.76 57.4424 133.129 57.7643 133.237 57.8499C133.375 57.9584 133.504 58.0134 133.556 58.0343C133.673 58.0816 133.779 58.1053 133.828 58.1156C133.944 58.1403 134.076 58.1583 134.2 58.1728C134.459 58.2031 134.827 58.2338 135.29 58.2656C136.221 58.3297 137.608 58.4027 139.443 58.4848L139.499 57.2461L139.554 56.0073C137.723 55.9254 136.361 55.8534 135.46 55.7914C135.006 55.7602 134.686 55.7327 134.487 55.7095C134.382 55.6972 134.343 55.6897 134.344 55.6899C134.347 55.6906 134.36 55.6933 134.379 55.6987C134.396 55.7034 134.436 55.7148 134.487 55.7356C134.524 55.7507 134.643 55.7999 134.773 55.9028C134.875 55.9828 135.24 56.2991 135.24 56.868H134Z" fill="#FAF9F5"/>
<ellipse cx="134" cy="70" rx="42" ry="8" fill="#CBCADA"/>
<path d="M134 62C157.196 62 176 65.5817 176 70C176 70.8737 175.264 71.7129 173.904 72.5C168.39 69.307 152.609 67 134 67C115.39 67 99.6083 69.3068 94.0947 72.5C92.7359 71.713 92 70.8736 92 70C92 65.5817 110.804 62 134 62Z" fill="#E9E8F2"/>
<path d="M131 102C130.088 101.833 129.186 101.669 128.288 101.508C120.165 100.051 112.189 98.8554 104.27 97.6951C96.4707 96.3113 88.089 96.0896 81.4128 92.1276C80.7506 91.5973 80.1694 90.9178 80 90C79.8219 90.9177 80.1634 91.9298 80.6991 92.7545C86.5874 99.5664 95.5102 101.214 103.539 102.641C111.755 103.846 120.083 103.701 128.276 102.458C129.182 102.319 130.088 102.167 131 102Z" fill="#E9E8F2"/>
<path d="M133 135C132.088 134.833 131.186 134.669 130.288 134.508C122.165 133.051 114.189 131.855 106.27 130.695C98.4707 129.311 90.089 129.09 83.4128 125.128C82.7506 124.597 82.1694 123.918 82 123C81.8219 123.918 82.1634 124.93 82.6991 125.755C88.5874 132.566 97.5102 134.214 105.539 135.641C113.755 136.846 122.083 136.701 130.276 135.458C131.182 135.319 132.088 135.167 133 135Z" fill="#E9E8F2"/>
<path d="M135 168C134.088 167.833 133.186 167.669 132.288 167.508C124.165 166.051 116.189 164.855 108.27 163.695C100.471 162.311 92.089 162.09 85.4128 158.128C84.7506 157.597 84.1694 156.918 84 156C83.8219 156.918 84.1634 157.93 84.6991 158.755C90.5874 165.566 99.5102 167.214 107.539 168.641C115.755 169.846 124.083 169.701 132.276 168.458C133.182 168.319 134.088 168.167 135 168Z" fill="#E9E8F2"/>
<path d="M137 201C136.088 200.833 135.186 200.669 134.288 200.508C126.165 199.051 118.189 197.855 110.27 196.695C102.471 195.311 94.089 195.09 87.4128 191.128C86.7506 190.597 86.1694 189.918 86 189C85.8219 189.918 86.1634 190.93 86.6991 191.755C92.5874 198.566 101.51 200.214 109.539 201.641C117.755 202.846 126.083 202.701 134.276 201.458C135.182 201.319 136.088 201.167 137 201Z" fill="#E9E8F2"/>
</svg>
